<?xml version="1.0" encoding="UTF-8"?>
<svg width="24px" height="24px" viewBox="0 0 24 24" version="1.1" xmlns="http://www.w3.org/2000/svg" xmlns:xlink="http://www.w3.org/1999/xlink">
    <g stroke="none" stroke-width="1" fill="none" fill-rule="evenodd">
        <g transform="translate(1.000000, 2.000000)" fill="#000">
            <path d="M11,10.5728455 C13.9690496,10.5728455 16.3759398,8.20603343 16.3759398,5.28642276 C16.3759398,2.36681209 13.9690496,0 11,0 C8.03095041,0 5.62406015,2.36681209 5.62406015,5.28642276 C5.62406015,8.20603343 8.03095041,10.5728455 11,10.5728455 Z M14.5904999,5.24951295 C14.5904999,7.19496655 12.9829784,8.77206829 11,8.77206829 C9.01702164,8.77206829 7.40950007,7.19496655 7.40950007,5.24951295 C7.40950007,3.30405936 9.01702164,1.72695761 11,1.72695761 C12.9829784,1.72695761 14.5904999,3.30405936 14.5904999,5.24951295 L14.5904999,5.24951295 Z M22,19.098087 C22,21 20.1666667,21 20.1666667,21 L1.83333333,21 C1.83333333,21 0,21 0,19.098087 C0,17.196174 1.83333333,11.4904351 11,11.4904351 C20.1666667,11.4904351 22,17.196174 22,19.098087 Z M19.754713,19.2301643 C19.7529619,18.7450645 19.4850369,17.2858211 18.2977613,15.9488387 C17.1560155,14.663127 15.0073619,13.3222007 10.9989936,13.3222007 C6.98887405,13.3222007 4.84197164,14.663127 3.70022582,15.9488387 C2.51295026,17.2858211 2.24677639,18.7450645 2.2432741,19.2301643 L19.754713,19.2301643 Z" id="Shape"></path>
        </g>
    </g>
</svg>