<?xml version="1.0" encoding="UTF-8"?>
<svg width="24px" height="24px" viewBox="0 0 24 24" version="1.1" xmlns="http://www.w3.org/2000/svg" xmlns:xlink="http://www.w3.org/1999/xlink">
    <g  stroke="none" stroke-width="1" fill="none" fill-rule="evenodd">
        <g  transform="translate(1.000000, 1.000000)" fill="#000">
            <path d="M0,0.733333333 C0,0.328324517 0.328331032,0 0.733347885,0 L3.24413375,0 C3.58071878,0 3.87402764,0.229292678 3.9554812,0.555866667 L4.54949299,2.93333333 L21.2670887,2.93333333 C21.4867019,2.93346595 21.6946964,3.03201241 21.8338875,3.20187905 C21.9730787,3.37174569 22.0288138,3.59505064 21.9857696,3.8104 L20.5190738,11.1437333 C20.4530628,11.4727175 20.1721807,11.7149358 19.8370603,11.7318667 L6.42299965,12.4722224 L6.75152435,14.4277871 L19.0385409,14.4277871 C19.4435577,14.4277871 19.8003929,14.9949912 19.8003929,15.4 C19.8003929,15.8050088 19.4720619,16.1333333 19.067045,16.1333333 L5.86678308,16.1333333 C5.51405987,16.1330066 5.2115364,15.8816275 5.14663546,15.5349333 L2.9480585,3.8236 L2.36138019,1.46666667 L0.733347885,1.46666667 C0.328331032,1.46666667 0,1.13834215 0,0.733333333 Z M4.88196686,4.62009932 L5.97858614,10.7168354 L19.0275082,10.0965737 L20.0657399,4.62009932 L4.88196686,4.62009932 Z M7.33347885,16.1333333 C5.71341144,16.1333333 4.40008731,17.4466314 4.40008731,19.0666667 C4.40008731,20.6867019 5.71341144,22 7.33347885,22 C8.95354626,22 10.2668704,20.6867019 10.2668704,19.0666667 C10.2668704,17.4466314 8.95354626,16.1333333 7.33347885,16.1333333 Z M17.6003492,16.1333333 C15.9802818,16.1333333 14.6669577,17.4466314 14.6669577,19.0666667 C14.6669577,20.6867019 15.9802818,22 17.6003492,22 C19.2204166,22 20.5337408,20.6867019 20.5337408,19.0666667 C20.5337408,17.4466314 19.2204166,16.1333333 17.6003492,16.1333333 Z M7.33347885,17.6 C8.14351255,17.6 8.80017462,18.256649 8.80017462,19.0666667 C8.80017462,19.8766843 8.14351255,20.5333333 7.33347885,20.5333333 C6.52344514,20.5333333 5.86678308,19.8766843 5.86678308,19.0666667 C5.86678308,18.256649 6.52344514,17.6 7.33347885,17.6 Z M17.6003492,17.6 C18.4103829,17.6 19.067045,18.256649 19.067045,19.0666667 C19.067045,19.8766843 18.4103829,20.5333333 17.6003492,20.5333333 C16.7903155,20.5333333 16.1336535,19.8766843 16.1336535,19.0666667 C16.1336535,18.256649 16.7903155,17.6 17.6003492,17.6 Z" id="Shape"></path>
        </g>
    </g>
</svg>