<?xml version="1.0" encoding="UTF-8"?>
<svg width="24px" height="24px" viewBox="0 0 24 24" version="1.1" xmlns="http://www.w3.org/2000/svg" xmlns:xlink="http://www.w3.org/1999/xlink">
    <g stroke="none" stroke-width="1" fill="none" fill-rule="evenodd">
        <g  transform="translate(1.000000, 2.000000)" fill="#000000" fill-rule="nonzero">
            <path d="M15.4791701,0.00624653195 C13.9228997,0.0768956856 12.4445093,0.744368331 11.3385616,1.88305777 L10.9994638,2.23113825 L10.6607652,1.88289369 C8.22196762,-0.626926197 4.26789564,-0.626926166 1.82909814,1.88289375 C-0.609699355,4.39271366 -0.609699384,8.46193574 1.82909808,10.9717557 L10.320519,19.7104629 C10.6956441,20.0965124 11.3038421,20.0965124 11.6789672,19.7104629 L20.1703881,10.9717557 C21.341782,9.7668144 22,8.13200116 22,6.42732469 C22,4.72264823 21.341782,3.08783498 20.1702286,1.88272965 C18.999544,0.677386599 17.4109924,0 15.7545545,0 L15.4791701,0.00624653195 Z M15.7545545,1.97708307 C16.9013192,1.97708307 18.0010857,2.44604303 18.8117804,3.28073846 C19.6231746,4.11537028 20.0788641,5.24716406 20.0788641,6.42732469 L20.0728179,6.66263811 C20.016526,7.75706898 19.569103,8.79489936 18.8120993,9.5735828 L10.9994638,17.6128446 L3.18754634,9.57374685 C1.49899912,7.83602588 1.49899915,5.01862355 3.18754639,3.2809026 C4.87609364,1.54318164 7.61376964,1.54318162 9.30231692,3.28090255 L10.320519,4.32875657 C10.6956441,4.71480605 11.3038421,4.71480605 11.6789672,4.32875657 L12.6971693,3.28090254 C13.5080234,2.44604303 14.6077899,1.97708307 15.7545545,1.97708307 Z" id="Path"></path>
        </g>
    </g>
</svg>