<?xml version="1.0" encoding="UTF-8"?>
<svg width="85px" height="80px" viewBox="0 0 85 80" version="1.1" xmlns="http://www.w3.org/2000/svg" xmlns:xlink="http://www.w3.org/1999/xlink">
    <title>television</title>
    <g id="💎-UI-design" stroke="none" stroke-width="1" fill="none" fill-rule="evenodd">
        <g id="television" fill="#E0E0E0" fill-rule="nonzero">
            <path d="M77.183908,17.9531443 L47.2873563,17.9531443 L62.4310345,2.86066584 L59.6954023,0.0986436498 L43.9655172,15.6843403 L28.2356322,0 L25.5,2.76202219 L40.6436782,17.8545006 L7.81609195,17.8545006 C3.51724138,17.8545006 0,21.405672 0,25.7459926 L0,72.108508 C0,76.4488286 3.51724138,80 7.81609195,80 L77.183908,80 C81.4827586,80 85,76.4488286 85,72.108508 L85,25.7459926 C85,21.5043157 81.4827586,17.9531443 77.183908,17.9531443 Z M52.7586207,61.9482121 C52.7586207,65.2034525 50.1206897,67.8668311 46.8965517,67.8668311 L16.6091954,67.8668311 C13.3850575,67.8668311 10.7471264,65.2034525 10.7471264,61.9482121 L10.7471264,36.3008631 C10.7471264,33.0456227 13.3850575,30.3822441 16.6091954,30.3822441 L46.8965517,30.3822441 C50.1206897,30.3822441 52.7586207,33.0456227 52.7586207,36.3008631 L52.7586207,61.9482121 Z M67.4137931,65.4993835 C63.6034483,65.4993835 60.5747126,62.4414303 60.5747126,58.594328 C60.5747126,54.7472256 63.6034483,51.6892725 67.4137931,51.6892725 C71.2241379,51.6892725 74.2528736,54.7472256 74.2528736,58.594328 C74.2528736,62.4414303 71.2241379,65.4993835 67.4137931,65.4993835 Z M75.2298851,45.4747226 L59.5977011,45.4747226 L59.5977011,41.5289766 L75.2298851,41.5289766 L75.2298851,45.4747226 Z M75.2298851,35.6103576 L59.5977011,35.6103576 L59.5977011,31.6646116 L75.2298851,31.6646116 L75.2298851,35.6103576 Z" id="Shape"></path>
        </g>
    </g>
</svg>